#!OML:ASF F:\VICON\USERDATA\INSTALL\rory3\rory3.ASF
:FULLY-SPECIFIED
:DEGREES
64
root -0.24140442815955873 17.406535025442384 36.7193626888949 0.39560990046312217 5.102802081103297 -2.7582661108462116
lfemur -23.195701612855455 -0.7231674219751641 -24.154615907152284
ltibia 37.957935979566926
lfoot -10.899400838581903 -8.537442766049852
ltoes 0.6473771162803015
rfemur -4.183701646696036 -1.5736644659504266 26.643874444887015
rtibia 90.68831386132123
rfoot 15.149833149106506 -11.172655874748417
rtoes 12.518308109302009
lowerback 15.148536256597287 2.213041637064113 1.9067027275098696
upperback -0.6519129834520248 3.38121520760248 0.4630546198544916
thorax -9.316622884420351 1.5152558740641249 -1.6493087252730372
lowerneck -19.589630114922954 -4.922258708823197 -2.405319124586927
upperneck 14.527461395310656 -6.834966415154643 3.9647897299469994
head 7.920303835205297 -2.9604694410407313 0.9380423844668189
lclavicle -2.120420914073421e-15 1.4995766641431882e-15
lhumerus -62.09395530048573 -8.708105736296272 98.61445239926239
lradius 111.97446632853513
lwrist 31.139337177668747
lhand -25.692371642618266 2.802239944063049
lfingers 7.12502
lthumb 0.84282990870281 32.79331244638243
rclavicle -2.120420914073421e-15 1.4995766641431882e-15
rhumerus -44.53260768187333 10.592754055751762 -98.69372373041331
rradius 104.32869291872485
rwrist -8.224940558087471
rhand -17.084738350401775 38.37709464738995
rfingers 7.12502
rthumb 9.153314856826244 9.239400470211718
65
root -0.29060839531277327 17.152473164377977 37.59125494821176 0.3005927386619258 5.09175759843292 -1.6573200364157068
lfemur -20.932902738893944 -1.266403050069506 -25.416261508852294
ltibia 42.263977991900084
lfoot -15.387856895557304 -5.555305851983307
ltoes 2.1850438212562846
rfemur -9.56837173843601 -3.2631034241262156 24.10202623045175
rtibia 98.71901299402936
rfoot 13.495696256007976 -10.495552117764019
rtoes 13.49670451573235
lowerback 15.657213934582755 2.106027390517644 0.5248676488030876
upperback -0.37181677325213225 2.9671600818452317 0.10259499036271547
thorax -9.45588756016755 1.3729047922982431 -0.9444766943055173
lowerneck -19.995852240541502 -4.846663841977712 -2.3019138057668607
upperneck 14.37083522123466 -6.775512923307841 4.128870297990144
head 7.920535449001508 -2.902480082368702 0.9896394247138633
lclavicle -1.882722769108553e-15 1.6720281096634862e-15
lhumerus -57.60388212609095 -11.010315140989412 99.26918948007011
lradius 110.62040858818825
lwrist 31.68095656763325
lhand -26.042205191052478 3.497958518223973
lfingers 7.12502
lthumb 0.5049693177975413 33.490694463736084
rclavicle -1.882722769108553e-15 1.6720281096634862e-15
rhumerus -45.57154557000162 8.887654271675855 -99.43620171875213
rradius 102.48100184204047
rwrist -7.7949902805266
rhand -17.08788151261019 38.27254353565476
rfingers 7.12502
rthumb 9.15022312457042 9.104999466775483
66
root -0.32914647592208396 16.94110312925958 38.03442627057756 0.44568866209612024 4.7955593603159805 -0.671941807482137
lfemur -18.57180011692765 -1.8436561246787488 -26.590303603078194
ltibia 45.541862350418576
lfoot -19.324272947995603 -2.3742518821386414
ltoes 1.9461966817529532
rfemur -15.931391733341632 -4.66050902126757 21.87704749227373
rtibia 105.34934832964818
rfoot 11.58304063261683 -9.380428640546373
rtoes 14.109009314407372
lowerback 16.087274812961013 1.9999546482345176 -0.7518662057708465
upperback -0.16168246357708305 2.562362653335067 -0.22976710481479223
thorax -9.596032132144998 1.2328599039815726 -0.32742456634691564
lowerneck -20.505074709442034 -4.755433137713078 -2.210239687748083
upperneck 14.181027141718333 -6.681975873621445 4.246781654066687
head 7.91971615726072 -2.8326419459746797 1.0286930001691617
lclavicle -1.8947104286679487e-15 1.6633619274233215e-15
lhumerus -52.87265220448493 -13.439683968014224 99.69527881716483
lradius 108.99046395097645
lwrist 32.11709281170332
lhand -26.2178169861969 3.869556758860136
lfingers 7.12502
lthumb 0.33537394400920917 33.86306513821239
rclavicle -1.8947104286679487e-15 1.6633619274233215e-15
rhumerus -46.867208877040945 7.217367612315485 -100.11381806649594
rradius 101.07130883586704
rwrist -7.716611639501648
rhand -17.053740724439546 38.19443025849236
rfingers 7.12502
rthumb 9.183130787389942 8.997458579780531
67
root -0.3490342989629206 16.802919333802578 38.448976221581745 0.7947873718558678 4.354290398410953 0.060955960140636645
lfemur -15.75971791011661 -2.314518656275446 -27.379134155368362
ltibia 47.831738658248796
lfoot -22.009847540041545 0.49837706337060084
ltoes 0.33864494702411285
rfemur -22.54358546614936 -5.713573124961423 20.38260496954417
rtibia 110.40688265879028
rfoot 9.653639066015886 -8.107812817816312
rtoes 14.12387135227794
lowerback 16.43547141409269 1.8678343069181318 -1.7083960052941929
upperback -0.04230396162375172 2.178352522698722 -0.42802956126462766
thorax -9.73029436286603 1.0939526925841567 0.23730702319337071
lowerneck -20.9834022570723 -4.609346526929147 -2.1362825907169767
upperneck 14.008618879553692 -6.492129903397743 4.302822992830721
head 7.918066867913501 -2.727714656576448 1.0567998054703232
lclavicle -1.7564845657764011e-15 1.763625792787418e-15
lhumerus -48.08681480298172 -15.548705819502489 99.90385747163332
lradius 107.68259052665165
lwrist 32.34469034418614
lhand -26.151622168255077 3.804379233684987
lfingers 7.12502
lthumb 0.39931138811656486 33.799125547365406
rclavicle -1.7564845657764011e-15 1.763625792787418e-15
rhumerus -48.26366185860504 5.934621230766927 -100.62381685983031
rradius 100.36461560873948
rwrist -8.064611537425355
rhand -16.91484937624388 38.177596164605234
rfingers 7.12502
rthumb 9.317162717742088 8.958524889940414
68
root -0.3557861705450181 16.744160603918193 38.87391171104457 1.247322359713841 3.8754179750071 0.4202036573544352
lfemur -12.815722978703898 -2.6840048340557616 -27.749699495508764
ltibia 48.761992455407345
lfoot -23.367211742343816 2.533817002950033
ltoes -2.4446034658522233
rfemur -29.030399089958927 -6.503325687783805 19.703087076527304
rtibia 113.31847337250922
rfoot 7.760910641977949 -7.034526346378771
rtoes 13.309528205742923
lowerback 16.64903572441735 1.641630122391604 -2.2978666393008274
upperback -0.04532813460063112 1.746985835414761 -0.4566824107316201
thorax -9.86079823707978 0.9230797796887118 0.7282902806472062
lowerneck -21.349988944112443 -4.3945301215895896 -2.085964138745936
upperneck 13.893132642349194 -6.190273629488846 4.269507042121812
head 7.914018959002039 -2.5817947378374884 1.0686791421287112
lclavicle -1.7532591106011404e-15 1.7659463844381564e-15
lhumerus -43.807598574598295 -17.103684432741403 99.86155990209599
lradius 107.10768034798582
lwrist 32.41786715597087
lhand -25.947532167030946 3.2672009004919724
lfingers 7.12502
lthumb 0.596423121209193 33.264867248450805
rclavicle -1.7532591106011404e-15 1.7659463844381564e-15
rhumerus -49.86911258178659 5.166389607896742 -101.00283386013551
rradius 100.34967901180049
rwrist -8.853973779904257
rhand -16.64133714256252 38.202016752009236
rfingers 7.12502
rthumb 9.581167396596978 8.97319265065137
